:FULLY-SPECIFIED
:FORCE-ALL-JOINTS-BE-3DOF
:DEGREES
611
root 5.60847 16.6744 -3.77458 0.0986556 52.4527 -7.92855
lfemur -17.9725 24.6784 -22.0081
ltibia 40.3861 -0 0
lfoot -32.5277 24.9959 0.00238727
ltoes 18.1731 -0 0
rfemur -52.9953 -17.9059 28.1472
rtibia 61.845 -0 0
rfoot 7.9466 29.8078 0.0267619
rtoes -3.517 0 0
lowerback 3.55241 -3.31554 -4.93177
upperback 0.0798367 -4.59946 1.09572
thorax -1.42702 -2.26203 4.08696
lowerneck -8.37089 -9.3982 -0.518388
upperneck 14.9292 -13.4061 4.59485
head 6.26304 -6.16228 0.453399
lclavicle 9.71063e-014 1.03368e-014 0
lhumerus -22.2571 -42.1959 92.9025
lradius 56.6605 -0 0
lwrist 20.5917 0 0
lhand -10.4161 0.360584 -0.00488868
lfingers 7.12502 -0 0
lthumb 15.5832 29.7575 -0.0039007
rclavicle 9.71063e-014 1.03368e-014 0
rhumerus 21.9901 3.63418 -72.1004
rradius 118.397 -0 0
rwrist -58.7136 0 0
rhand -27.0284 -22.449 0.00470629
rfingers 7.12502 -0 0
rthumb -0.447532 -52.4274 0.00452499
612
root 5.60143 16.6863 -3.77736 0.586086 50.9276 -7.66535
lfemur -17.8197 24.7039 -22.0196
ltibia 40.0206 -0 0
lfoot -32.5408 24.7881 0.00379371
ltoes 18.7954 -0 0
rfemur -52.8432 -17.9703 28.0235
rtibia 61.9193 -0 0
rfoot 7.84721 29.2165 0.044921
rtoes -3.27776 0 0
lowerback 3.36755 -3.35548 -4.85572
upperback -0.046662 -4.64352 1.1257
thorax -1.45185 -2.28132 4.06939
lowerneck -8.4884 -9.2685 -0.405653
upperneck 14.9689 -13.2384 4.51571
head 6.276 -6.07909 0.419116
lclavicle 9.71063e-014 1.03368e-014 0
lhumerus -22.2856 -42.976 93.4084
lradius 57.1926 -0 0
lwrist 20.5276 0 0
lhand -10.2434 0.351984 -0.00927995
lfingers 7.12502 -0 0
lthumb 15.7498 29.7399 -0.00740409
rclavicle 9.71063e-014 1.03368e-014 0
rhumerus 21.1315 3.4499 -71.7075
rradius 117.447 -0 0
rwrist -58.5688 0 0
rhand -27.1597 -22.7101 0.00967301
rfingers 7.12502 -0 0
rthumb -0.574356 -52.6876 0.00929818
613
root 5.59861 16.699 -3.77941 1.07053 49.4377 -7.42437
lfemur -17.625 24.5971 -22.001
ltibia 39.6154 -0 0
lfoot -32.547 24.4598 0.00435997
ltoes 19.4237 -0 0
rfemur -52.604 -18.0014 27.7692
rtibia 61.9764 -0 0
rfoot 7.77113 28.3851 0.0554244
rtoes -3.1068 0 0
lowerback 3.15949 -3.38621 -4.76225
upperback -0.182236 -4.67349 1.17262
thorax -1.47454 -2.29352 4.05807
lowerneck -8.60792 -9.14283 -0.293619
upperneck 15.0091 -13.0747 4.42818
head 6.28921 -5.99858 0.381971
lclavicle 9.71063e-014 1.03368e-014 0
lhumerus -22.3488 -43.7604 93.9505
lradius 57.7893 -0 0
lwrist 20.4747 0 0
lhand -10.1092 0.319495 -0.0130775
lfingers 7.12502 -0 0
lthumb 15.8792 29.7006 -0.0104313
rclavicle 9.71063e-014 1.03368e-014 0
rhumerus 20.1921 3.33614 -71.2348
rradius 116.479 -0 0
rwrist -58.3327 0 0
rhand -27.3051 -22.9739 0.0147483
rfingers 7.12502 -0 0
rthumb -0.714799 -52.9503 0.0141744
614
root 5.59957 16.7122 -3.78062 1.55323 47.9811 -7.20255
lfemur -17.394 24.372 -21.9574
ltibia 39.1763 -0 0
lfoot -32.5474 24.0233 0.00426335
ltoes 20.0542 -0 0
rfemur -52.2891 -18.0031 27.4002
rtibia 62.0183 -0 0
rfoot 7.71436 27.3381 0.0594915
rtoes -2.99714 0 0
lowerback 2.93119 -3.40841 -4.65379
upperback -0.325464 -4.69069 1.23428
thorax -1.49516 -2.29935 4.05225
lowerneck -8.72876 -9.02115 -0.182844
upperneck 15.048 -12.915 4.33403
head 6.30216 -5.92073 0.34266
lclavicle 9.71063e-014 1.03368e-014 0
lhumerus -22.4463 -44.5483 94.527
lradius 58.4428 -0 0
lwrist 20.4325 0 0
lhand -10.0097 0.266202 -0.016247
lfingers 7.12502 -0 0
lthumb 15.9752 29.6424 -0.012957
rclavicle 9.71063e-014 1.03368e-014 0
rhumerus 19.1771 3.28895 -70.6951
rradius 115.491 -0 0
rwrist -58.0104 0 0
rhand -27.4627 -23.2421 0.0197879
rfingers 7.12502 -0 0
rthumb -0.867004 -53.2172 0.0190158
615
root 5.60388 16.7257 -3.78089 2.03504 46.5564 -6.99723
lfemur -17.1327 24.0425 -21.8937
ltibia 38.7091 -0 0
lfoot -32.5433 23.4914 0.00369803
ltoes 20.6832 -0 0
rfemur -51.9101 -17.9789 26.9324
rtibia 62.0475 -0 0
rfoot 7.67293 26.1005 0.0584884
rtoes -2.94184 0 0
lowerback 2.68564 -3.42282 -4.5328
upperback -0.474916 -4.69644 1.30842
thorax -1.51373 -2.29952 4.05118
lowerneck -8.85024 -8.90342 -0.0738888
upperneck 15.0836 -12.7595 4.23501
head 6.31434 -5.84553 0.301875
lclavicle 9.71063e-014 1.03368e-014 0
lhumerus -22.5776 -45.3386 95.1361
lradius 59.1454 -0 0
lwrist 20.401 0 0
lhand -9.94081 0.195187 -0.0187989
lfingers 7.12502 -0 0
lthumb 16.0417 29.5682 -0.0149932
rclavicle 9.71063e-014 1.03368e-014 0
rhumerus 18.092 3.30415 -70.1014
rradius 114.483 -0 0
rwrist -57.6069 0 0
rhand -27.6306 -23.5164 0.0246534
rfingers 7.12502 -0 0
rthumb -1.02911 -53.4901 0.0236903
616
root 5.61112 16.7394 -3.78009 2.51646 45.1619 -6.80605
lfemur -16.8471 23.6229 -21.8153
ltibia 38.2197 -0 0
lfoot -32.5362 22.8763 0.0028581
ltoes 21.307 -0 0
rfemur -51.4788 -17.9322 26.3818
rtibia 62.0663 -0 0
rfoot 7.64286 24.697 0.053819
rtoes -2.93394 0 0
lowerback 2.4258 -3.43017 -4.40173
upperback -0.629159 -4.69208 1.39284
thorax -1.53032 -2.29473 4.05413
lowerneck -8.97166 -8.78962 0.0326937
upperneck 15.1142 -12.6082 4.13286
head 6.32523 -5.77296 0.26031
lclavicle 9.71063e-014 1.03368e-014 0
lhumerus -22.7421 -46.1302 95.7759
lradius 59.8895 -0 0
lwrist 20.3796 0 0
lhand -9.89861 0.109532 -0.0207726
lfingers 7.12502 -0 0
lthumb 16.0824 29.4808 -0.0165766
rclavicle 9.71063e-014 1.03368e-014 0
rhumerus 16.9422 3.3772 -69.4666
rradius 113.455 -0 0
rwrist -57.1272 0 0
rhand -27.8068 -23.7984 0.0292122
rfingers 7.12502 -0 0
rthumb -1.19928 -53.7706 0.0280707
617
root 5.62085 16.7531 -3.77812 2.99774 43.7958 -6.62685
lfemur -16.5431 23.1272 -21.727
ltibia 37.714 -0 0
lfoot -32.5271 22.1907 0.00192337
ltoes 21.9219 -0 0
rfemur -51.0069 -17.8669 25.7645
rtibia 62.0769 -0 0
rfoot 7.62015 23.1522 0.0468322
rtoes -2.96648 0 0
lowerback 2.15467 -3.43121 -4.26303
upperback -0.786757 -4.67896 1.48529
thorax -1.54496 -2.2857 4.06034
lowerneck -9.09233 -8.67973 0.136351
upperneck 15.1378 -12.4612 4.0293
head 6.33433 -5.70301 0.218655
lclavicle 9.71063e-014 1.03368e-014 0
lhumerus -22.9391 -46.9222 96.4445
lradius 60.6673 -0 0
lwrist 20.3683 0 0
lhand -9.87912 0.0123155 -0.0222233
lfingers 7.12502 -0 0
lthumb 16.1012 29.3829 -0.0177563
rclavicle 9.71063e-014 1.03368e-014 0
rhumerus 15.7333 3.5031 -68.8038
rradius 112.406 -0 0
rwrist -56.5765 0 0
rhand -27.9894 -24.0899 0.0333366
rfingers 7.12502 -0 0
rthumb -1.37563 -54.0606 0.032035
618
root 5.63264 16.7665 -3.77486 3.47889 42.4567 -6.45769
lfemur -16.2263 22.5695 -21.6337
ltibia 37.1976 -0 0
lfoot -32.5176 21.4471 0.00104795
ltoes 22.5241 -0 0
rfemur -50.5061 -17.7869 25.0962
rtibia 62.0815 -0 0
rfoot 7.60074 21.491 0.0387462
rtoes -3.03251 0 0
lowerback 1.87521 -3.42676 -4.11915
upperback -0.946274 -4.65843 1.58358
thorax -1.55769 -2.27314 4.06907
lowerneck -9.21158 -8.57373 0.236535
upperneck 15.1526 -12.3186 3.92606
head 6.34113 -5.63566 0.177599
lclavicle 9.71063e-014 1.03368e-014 0
lhumerus -23.1677 -47.7136 97.1397
lradius 61.4713 -0 0
lwrist 20.3667 0 0
lhand -9.87838 -0.0933822 -0.023211
lfingers 7.12502 -0 0
lthumb 16.102 29.2775 -0.0185838
rclavicle 9.71063e-014 1.03368e-014 0
rhumerus 14.4706 3.67632 -68.1258
rradius 111.335 -0 0
rwrist -55.9598 0 0
rhand -28.1765 -24.3926 0.0369043
rfingers 7.12502 -0 0
rthumb -1.55631 -54.3616 0.035466
619
root 5.64607 16.7795 -3.7702 3.95976 41.1429 -6.29677
lfemur -15.9024 21.9639 -21.5399
ltibia 36.6765 -0 0
lfoot -32.5087 20.6579 0.000351621
ltoes 23.1098 -0 0
rfemur -49.9879 -17.6968 24.3928
rtibia 62.0826 -0 0
rfoot 7.5805 19.7382 0.0305885
rtoes -3.12507 0 0
lowerback 1.59041 -3.41765 -3.97253
upperback -1.10628 -4.63187 1.68548
thorax -1.56856 -2.25777 4.07958
lowerneck -9.32871 -8.47161 0.332699
upperneck 15.1567 -12.1806 3.82482
head 6.34513 -5.57089 0.13783
lclavicle 9.71063e-014 1.03368e-014 0
lhumerus -23.427 -48.5034 97.8595
lradius 62.2936 -0 0
lwrist 20.3745 0 0
lhand -9.89242 -0.204483 -0.023791
lfingers 7.12502 -0 0
lthumb 16.0884 29.1673 -0.0191056
rclavicle 9.71063e-014 1.03368e-014 0
rhumerus 13.1593 3.89074 -67.4451
rradius 110.243 -0 0
rwrist -55.2822 0 0
rhand -28.3661 -24.7081 0.0397999
rfingers 7.12502 -0 0
rthumb -1.73947 -54.6754 0.0382527
620
root 5.6607 16.7918 -3.76402 4.44001 39.8526 -6.1424
lfemur -15.5764 21.3248 -21.4497
ltibia 36.1564 -0 0
lfoot -32.5019 19.8357 -8.60014e-005
ltoes 23.6755 -0 0
rfemur -49.4636 -17.6016 23.6699
rtibia 62.0823 -0 0
rfoot 7.55525 17.9183 0.0231535
rtoes -3.23721 0 0
lowerback 1.30324 -3.40474 -3.82562
upperback -1.26536 -4.60069 1.7888
thorax -1.57761 -2.2403 4.09112
lowerneck -9.44305 -8.37336 0.424297
upperneck 15.1484 -12.0472 3.72731
head 6.34581 -5.50871 0.100037
lclavicle 9.71063e-014 1.03368e-014 0
lhumerus -23.7158 -49.2906 98.6014
lradius 63.1266 -0 0
lwrist 20.3915 0 0
lhand -9.91729 -0.317909 -0.0240075
lfingers 7.12502 -0 0
lthumb 16.0645 29.0553 -0.0193571
rclavicle 9.71063e-014 1.03368e-014 0
rhumerus 11.8044 4.1396 -66.7743
rradius 109.128 -0 0
rwrist -54.5487 0 0
rhand -28.5564 -25.0382 0.0419157
rfingers 7.12502 -0 0
rthumb -1.92324 -55.0038 0.0402916
